<svg width="60.000000" height="60.000000" viewBox="0 0 60 60" fill="none" xmlns="http://www.w3.org/2000/svg" xmlns:xlink="http://www.w3.org/1999/xlink">                                                         
        <desc>                                                                                                                                                                                                   
                        Created with Pixso.                                                                                                                                                                      
        </desc>                                                                                                                                                                                                  
        <defs>                                                                                                                                                                                                   
                <clipPath id="clip3_5291">                                                                                                                                                                       
                        <rect id="workspace_scan" rx="3.000000" width="60.000000" height="60.000000" fill="white"/>                                                                                              
                </clipPath>                                                                                                                                                                                      
        </defs>                                                                                                                                                                                                  
        <g clip-path="url(#clip3_5291)">                                                                                                                                                                         
                <path id="矢量 151" d="M38.5369 0L61.3463 18.3374L54.6781 26.6726L51.6121 23.697L41.8711 36.3181L37.6066 34.7727L29.6726 46.677L34.7635 48.9392L31.7886 60L3 60L3 48.9395L10.1074 45.0757L14.3718
 45.0757L34.2725 15.4546L31.4296 7.72729L38.5369 0Z" fill-rule="evenodd" fill="#C5CFE1"/>                                                                                                                        
                <path id="矢量 151" d="M52.948 24.9934L53.3453 25.3792L54.6781 26.6726L56.1843 24.7898L61.3463 18.3374L38.5369 0L31.4296 7.72729L34.2725 15.4546L14.3718 45.0757L10.1074 45.0757L3 48.9395L3 60L5
.40002 60L31.7886 60L34.7635 48.9392L31.8978 47.6658L29.6726 46.677L31.0229 44.6509L37.6066 34.7727L41.8711 36.3181L50.1362 25.6091L51.6121 23.697L52.948 24.9934ZM54.4541 23.1108L51.3545 20.1025L41.0415 33.464
8L36.6538 31.8748L26.097 47.7144L31.9126 50.2988L29.9489 57.6001L5.40002 57.6001L5.40002 50.3665L10.7175 47.4758L15.6508 47.4758L36.948 15.7759L34.1877 8.27368L38.7832 3.27734L57.9766 18.7078L54.4541 23.1108Z"
 fill-rule="evenodd" fill="#203A54"/>                                                                                                                                                                            
        </g>                                                                                                                                                                                                     
</svg>